<svg width="142" height="47" viewBox="0 0 142 47" fill="none" xmlns="http://www.w3.org/2000/svg">
<path d="M130.944 15.7319H137C136.234 9.83239 131.929 6.73145 125.946 6.73145C119.889 6.73145 115.84 9.9459 115.84 15.4671C115.84 21.7447 121.057 23.1438 123.83 23.7113C127.405 24.4297 130.908 24.5054 130.908 27.6819C130.908 29.8375 129.156 30.8963 126.675 30.8963C123.611 30.8963 121.568 29.308 121.057 26.4341H115.073C115.438 32.636 119.78 35.9638 126.165 35.9638C132.075 35.9638 136.927 33.1655 136.927 27.1148C136.927 20.6102 131.346 19.4379 127.442 18.8328C124.778 18.4169 121.86 18.0387 121.86 15.1267C121.86 13.0847 123.355 11.8368 125.873 11.8368C128.792 11.8368 130.543 13.5386 130.944 15.7319Z" fill="#403F41"/>
<path d="M111.753 7.67676H106.024V35.0938H111.753V7.67676Z" fill="#403F41"/>
<path d="M88.7314 25.5265H96.2107C95.0432 28.4764 92.4162 29.8753 89.388 29.8753C84.0615 29.8753 81.5806 25.6021 81.5806 21.3666C81.5806 17.0933 83.9154 12.7445 89.3517 12.7445C92.6717 12.7445 95.1525 14.3328 96.1012 17.169L102.267 17.169C101.209 10.7781 95.8093 7.10986 89.4247 7.10986C81.5441 7.10986 75.6335 12.6688 75.6335 21.4423C75.6335 30.3292 82.0547 35.5858 89.388 35.5858C96.612 35.5858 102.267 30.7075 102.267 23.0685V20.8372H88.7314V25.5265Z" fill="#403F41"/>
<path d="M62.5354 7.10986C55.9682 7.10986 51.1158 11.383 51.1523 18.4926H57.0628C56.9898 15.3916 58.8869 12.5554 62.2435 12.5554C65.1623 12.5554 66.877 14.6732 66.877 17.0933C66.877 19.5136 65.1623 20.8751 61.9881 22.35C57.6464 24.3542 54.5454 25.64 51.3712 26.7745V35.0942H73.4807V29.4972H58.3023C58.3023 29.4972 58.3528 29.4809 58.3777 29.4731C60.9593 28.6623 62.8989 27.7813 65.1988 26.7367C70.1241 24.4678 72.9334 21.6314 72.9334 16.7909C72.9334 10.8536 68.7013 7.10986 62.5354 7.10986Z" fill="#403F41"/>
<path d="M35.6103 25.4508C28.1674 25.4887 26.9635 30.14 26.5622 34.073L26.3798 35.8125H24.8839L24.7015 34.073C24.3002 30.14 23.0598 25.4886 15.8723 25.4508C14.6683 22.8791 14.1575 20.7992 14.1575 18.4546C14.1575 12.5931 18.7911 7.10954 25.65 7.10954C32.5091 7.10954 37.0696 12.5551 37.0696 18.4926C37.0696 20.7992 36.8507 22.8791 35.6103 25.4508ZM25.5772 0C14.2671 0 5 9.60553 5 21.3664C5 33.1653 14.2671 42.7707 25.5772 42.7707C36.9966 42.7707 46.2272 33.1653 46.2272 21.3664C46.2272 9.60556 36.9966 0 25.5772 0Z" fill="#29B24A"/>
</svg>
