<svg width="66" height="21" viewBox="0 0 66 21" fill="none" xmlns="http://www.w3.org/2000/svg">
<path d="M62.55 7.36408H65.5355C65.1579 4.60263 63.0357 3.15112 60.086 3.15112C57.1005 3.15112 55.1041 4.65576 55.1041 7.24017C55.1041 10.1786 57.676 10.8335 59.0429 11.0991C60.8054 11.4354 62.532 11.4709 62.532 12.9577C62.532 13.9667 61.6687 14.4623 60.4457 14.4623C58.935 14.4623 57.9279 13.7189 57.676 12.3737H54.7264C54.9062 15.2767 57.0466 16.8344 60.194 16.8344C63.1076 16.8344 65.4995 15.5245 65.4995 12.6922C65.4995 9.64754 62.7479 9.09883 60.8234 8.81559C59.5104 8.6209 58.0717 8.44386 58.0717 7.08084C58.0717 6.12497 58.8091 5.54085 60.05 5.54085C61.4889 5.54085 62.3521 6.33746 62.55 7.36408V7.36408Z" fill="white"/>
<path d="M53.0894 3.59351H50.2656V16.427H53.0894V3.59351Z" fill="white"/>
<path d="M41.7409 11.9487H45.4279C44.8523 13.3295 43.5573 13.9843 42.0646 13.9843C39.4388 13.9843 38.2158 11.9841 38.2158 10.0015C38.2158 8.00122 39.3668 5.96559 42.0466 5.96559C43.6833 5.96559 44.9062 6.70905 45.3739 8.03665L48.4133 8.03666C47.8918 5.04517 45.23 3.32812 42.0826 3.32812C38.1978 3.32812 35.2842 5.93017 35.2842 10.0369C35.2842 14.1968 38.4495 16.6573 42.0646 16.6573C45.6257 16.6573 48.4133 14.3738 48.4133 10.7981V9.75369H41.7409V11.9487V11.9487Z" fill="white"/>
<path d="M28.8274 3.32812C25.5901 3.32812 23.1981 5.32834 23.216 8.65621H26.1297C26.0937 7.20471 27.0289 5.87711 28.6835 5.87711C30.1224 5.87711 30.9677 6.8684 30.9677 8.00123C30.9677 9.13414 30.1224 9.77141 28.5576 10.4618C26.4174 11.4 24.8887 12.0018 23.3239 12.5329V16.4272H34.223V13.8073H26.7407C26.7407 13.8073 26.7656 13.7997 26.7779 13.796C28.0505 13.4165 29.0066 13.0041 30.1404 12.5151C32.5683 11.4531 33.9532 10.1254 33.9532 7.85968C33.9532 5.08051 31.8669 3.32812 28.8274 3.32812V3.32812Z" fill="white"/>
<path d="M15.5544 11.9131C11.8854 11.9309 11.2919 14.1081 11.0941 15.9491L11.0042 16.7633H10.2667L10.1768 15.9491C9.97903 14.1081 9.36754 11.9309 5.82442 11.9131C5.23092 10.7094 4.97913 9.73581 4.97913 8.63833C4.97913 5.89466 7.26327 3.32787 10.6444 3.32787C14.0256 3.32787 16.2738 5.87686 16.2738 8.65611C16.2738 9.73581 16.1659 10.7094 15.5544 11.9131ZM10.6085 0C5.03313 0 0.464844 4.49621 0.464844 10.0013C0.464844 15.5242 5.03313 20.0203 10.6085 20.0203C16.2378 20.0203 20.7881 15.5242 20.7881 10.0013C20.7881 4.49622 16.2378 0 10.6085 0Z" fill="white"/>
</svg>
