<svg width="42" height="42" viewBox="0 0 42 42" fill="none" xmlns="http://www.w3.org/2000/svg">
<path d="M2 38L2 33C2 32.4477 2.44772 32 3 32L11.8805 32C11.9599 32 12.039 32.0094 12.1161 32.0281L20.7706 34.1261C20.9215 34.1626 21.0788 34.1636 21.23 34.1288L30.3895 32.0254C30.4629 32.0085 30.538 32 30.6134 32L39 32C39.5523 32 40 32.4477 40 33L40 38C40 38.5523 39.5523 39 39 39L3 39C2.44772 39 2 38.5523 2 38Z" stroke="#39B54A" stroke-width="1.5"/>
<path d="M37 24.9395V5.43977C37 4.7731 36.5999 2.92424 35 2.93955C33.0238 2.95845 33.0132 3.4508 31 5.43977" stroke="#39B54A" stroke-width="1.5" stroke-linecap="round"/>
<path d="M28.3745 3.23841C28.4721 3.14078 28.6304 3.14078 28.728 3.23841L33.1424 7.65277C33.24 7.7504 33.24 7.9087 33.1424 8.00633L18.2595 22.8892C18.206 22.9427 18.1311 22.9691 18.0559 22.961L14.0717 22.5309C13.9548 22.5183 13.8625 22.426 13.8499 22.3092L13.1043 22.3897L13.8499 22.3092L13.4198 18.3249C13.4117 18.2497 13.4381 18.1748 13.4916 18.1213L28.3745 3.23841Z" stroke="#39B54A" stroke-width="1.5"/>
<path d="M13.8994 22.4805L10.8994 25.4805" stroke="#39B54A" stroke-width="1.5" stroke-linecap="round"/>
<path d="M8.42456 27.9561L5.94969 30.4309" stroke="#39B54A" stroke-width="1.5" stroke-linecap="round"/>
<path d="M24.071 5.07129L31.071 12.0713" stroke="#39B54A" stroke-width="1.5" stroke-linecap="round"/>
</svg>
