<svg width="42" height="42" viewBox="0 0 42 42" fill="none" xmlns="http://www.w3.org/2000/svg">
<path d="M26.3029 3.98146C26.2052 3.88383 26.2052 3.72554 26.3029 3.62791L27.4597 2.47104C27.5351 2.39566 27.65 2.37637 27.7459 2.42301L29.1001 3.08187C29.1505 3.10635 29.1911 3.147 29.2156 3.19731L29.89 2.8692L29.2156 3.19731L29.8744 4.55156C29.9211 4.64743 29.9018 4.76233 29.8264 4.83771L28.6695 5.99458C28.5719 6.09221 28.4136 6.09221 28.316 5.99458L26.3029 3.98146Z" stroke="#39B54A" stroke-width="1.5"/>
<path d="M25.061 3.01234C25.1586 2.91471 25.3169 2.91471 25.4146 3.01234L29.2447 6.84247C29.3423 6.9401 29.3423 7.09839 29.2447 7.19602L18.2368 18.2039C18.1407 18.3001 17.9853 18.3017 17.8871 18.2077L15.9268 16.3302L14.0494 14.3699C13.9553 14.2717 13.957 14.1164 14.0531 14.0202L25.061 3.01234Z" stroke="#39B54A" stroke-width="1.5"/>
<path d="M16.9858 12.3701L20.1644 15.5487" stroke="#39B54A" stroke-width="1.5" stroke-linecap="round"/>
<mask id="path-4-inside-1_459_270" fill="white">
<rect x="2" y="24" width="17" height="4" rx="1"/>
</mask>
<rect x="2" y="24" width="17" height="4" rx="1" stroke="#39B54A" stroke-width="3" mask="url(#path-4-inside-1_459_270)"/>
<mask id="path-5-inside-2_459_270" fill="white">
<rect x="2" y="36" width="38" height="5" rx="1"/>
</mask>
<rect x="2" y="36" width="38" height="5" rx="1" stroke="#39B54A" stroke-width="3" mask="url(#path-5-inside-2_459_270)"/>
<path d="M24.1361 12.4143C25.7841 12.8559 27.2978 13.6971 28.5431 14.8634C29.7884 16.0298 30.7268 17.4852 31.2752 19.1008C31.8236 20.7164 31.9652 22.4424 31.6872 24.1258C31.4093 25.8091 30.7205 27.398 29.6819 28.7516C28.6432 30.1052 27.2868 31.1817 25.7327 31.8859C24.1786 32.59 22.4748 32.9 20.7723 32.7884C19.0698 32.6769 17.4211 32.1471 15.9722 31.2461C14.5233 30.3452 13.319 29.1008 12.4659 27.6232" stroke="#39B54A" stroke-width="1.5" stroke-linecap="round" stroke-linejoin="round"/>
<path d="M27.3403 9.77165C29.4049 10.7319 31.2035 12.1823 32.5793 13.9967C33.9551 15.811 34.8663 17.9343 35.2338 20.1814C35.6012 22.4285 35.4136 24.7314 34.6874 26.8895C33.9611 29.0476 32.7182 30.9953 31.0669 32.5631C29.4156 34.1309 27.4061 35.2712 25.2133 35.8846C23.0205 36.498 20.7109 36.5659 18.4858 36.0825C16.2608 35.5991 14.1876 34.5789 12.447 33.1109C10.7064 31.6429 9.35117 29.7716 8.49929 27.66" stroke="#39B54A" stroke-width="1.5" stroke-linecap="round" stroke-linejoin="round"/>
</svg>
