<svg width="42" height="42" viewBox="0 0 42 42" fill="none" xmlns="http://www.w3.org/2000/svg">
<rect x="2.75" y="2.75" width="36.5" height="36.5" rx="2.25" stroke="#39B54A" stroke-width="1.5"/>
<path d="M12 6L7 6C6.44772 6 6 6.44772 6 7L6 12" stroke="#39B54A" stroke-width="1.5"/>
<path d="M36 12L36 7C36 6.44772 35.5523 6 35 6L30 6" stroke="#39B54A" stroke-width="1.5"/>
<path d="M30 36L35 36C35.5523 36 36 35.5523 36 35L36 30" stroke="#39B54A" stroke-width="1.5"/>
<path d="M6 30L6 35C6 35.5523 6.44772 36 7 36L12 36" stroke="#39B54A" stroke-width="1.5"/>
<path d="M21 14.0643C21.5639 14.0402 22.9496 13.8905 23.9808 13.4849C25.2697 12.9778 27.2837 12.3983 29.1366 14.4265C30.619 16.0491 29.8617 18.8692 29.2978 20.0764C28.9755 20.8491 28.331 22.9738 28.331 25.2917C28.331 28.1891 26.9615 30 26.0753 30C25.1892 30 24.0613 29.2032 23.4974 26.0885C23.0462 23.5968 21.6445 23.0704 21 23.1187" stroke="#39B54A" stroke-width="1.5" stroke-linecap="round"/>
<path d="M21 14.0643C20.4361 14.0402 19.0504 13.8905 18.0192 13.4849C16.7303 12.9778 14.7163 12.3983 12.8634 14.4265C11.381 16.0491 12.1383 18.8692 12.7022 20.0764C13.0245 20.8491 13.669 22.9738 13.669 25.2917C13.669 28.1891 15.0385 30 15.9247 30C16.8108 30 17.9387 29.2032 18.5026 26.0885C18.9538 23.5968 20.3555 23.0704 21 23.1187" stroke="#39B54A" stroke-width="1.5" stroke-linecap="round"/>
</svg>
