<svg width="88" height="49" viewBox="0 0 88 49" fill="none" xmlns="http://www.w3.org/2000/svg">
<path d="M15.8922 10.969C15.806 8.96037 15.7252 6.56503 15.7306 4.13746H15.6552C15.0733 6.25889 14.303 8.61664 13.6134 10.577L11.3723 17.0433H8.15614L6.18442 10.6307C5.59182 8.67572 4.98845 6.32334 4.53054 4.13209H4.47128C4.3797 6.38779 4.27734 8.94963 4.16959 11.0174L3.8302 17.3118H-0.00012207L1.16891 0.72168H6.68543L8.47938 6.26964C9.05581 8.17087 9.62147 10.2547 10.0309 12.1989H10.1171C10.6181 10.2762 11.2376 8.09031 11.8572 6.24278L13.802 0.72168H19.2161L20.1966 17.3118H16.1723L15.8922 10.969Z" fill="#39B54A"/>
<path d="M22.3606 0.72168H26.5449V14.17H33.9016V17.3118H22.3606V0.72168Z" fill="#39B54A"/>
<path d="M36.0654 1.06983C37.5614 0.848281 39.5067 0.72168 41.5418 0.72168C44.9514 0.72168 47.1768 1.29139 48.8948 2.47301C50.7608 3.73903 51.9343 5.72247 51.9343 8.60266C51.9343 11.7255 50.6868 13.883 48.9635 15.2018C47.0764 16.6314 44.1796 17.3118 40.6802 17.3118C38.571 17.3118 37.0645 17.1958 36.0654 17.0692V1.06983ZM40.1251 14.3683C40.4793 14.4264 41.0449 14.4316 41.5418 14.4316C45.2209 14.458 47.6367 12.617 47.6367 8.71872C47.6473 5.33211 45.4588 3.5544 41.97 3.5544C41.0819 3.5544 40.4846 3.62298 40.1251 3.69683V14.3683Z" fill="#39B54A"/>
<path d="M56.9835 15.1509C56.9835 13.8786 57.8839 12.9844 59.1527 12.9844C60.4269 12.9844 61.3009 13.8581 61.3114 15.1509C61.3114 16.4078 60.4479 17.3122 59.1422 17.3122C57.8733 17.3122 56.9783 16.4078 56.9835 15.1509Z" fill="#39B54A"/>
<path d="M69.4032 10.422H69.4517C69.7321 9.91659 70.0287 9.42715 70.3253 8.98558L72.7788 5.37858H77.2868L72.9514 10.2198L77.9016 17.3115H73.2803L70.3576 12.4117L69.4032 13.5928V17.3115H65.6393V0H69.4032V10.422Z" fill="#39B54A"/>
<path d="M77.9016 15.1244L81.5667 10.2971C82.225 9.4825 82.7486 8.86474 83.407 8.1267V8.07203H78.306V5.04883H87.8237L87.8185 7.34493L84.3142 11.9863C83.6817 12.7791 83.0804 13.5499 82.4168 14.2332V14.2879H88V17.3111H77.9016V15.1244Z" fill="#39B54A"/>
<path d="M35.3364 48.3284C27.3238 48.3284 19.4838 45.6286 13.2558 40.7209C7.10632 35.8774 2.77289 29.1039 1.05627 21.6514L0.721313 20.1973H4.60989L4.8297 21.0954C8.16874 34.8937 20.7137 44.5327 35.3416 44.5327C49.9696 44.5327 62.5146 34.8937 65.8536 21.1008L66.0734 20.1973H69.9672L69.6323 21.6514C67.9104 29.1039 63.577 35.8774 57.4275 40.7209C51.189 45.6286 43.3438 48.3284 35.3364 48.3284Z" fill="#CCCCCC"/>
</svg>
