<svg width="56" height="19" viewBox="0 0 56 19" fill="none" xmlns="http://www.w3.org/2000/svg">
<path d="M53.3284 6.69471H55.8875C55.5638 4.1843 53.7447 2.86475 51.2164 2.86475C48.6575 2.86475 46.9463 4.2326 46.9463 6.58207C46.9463 9.25337 49.1507 9.84873 50.3223 10.0902C51.8331 10.3959 53.313 10.4281 53.313 11.7798C53.313 12.6971 52.5731 13.1477 51.5248 13.1477C50.2299 13.1477 49.3666 12.4718 49.1507 11.2489H46.6226C46.7767 13.888 48.6113 15.3041 51.309 15.3041C53.8064 15.3041 55.8566 14.1133 55.8566 11.5385C55.8566 8.77058 53.4981 8.27176 51.8485 8.01426C50.7231 7.83727 49.4899 7.67632 49.4899 6.43721C49.4899 5.56825 50.1219 5.03723 51.1856 5.03723C52.4189 5.03723 53.1588 5.76141 53.3284 6.69471Z" fill="#403F41"/>
<path d="M45.2194 3.2666H42.7991V14.9334H45.2194V3.2666Z" fill="#403F41"/>
<path d="M35.4922 10.8622H38.6525C38.1591 12.1175 37.0492 12.7128 35.7696 12.7128C33.519 12.7128 32.4707 10.8944 32.4707 9.09211C32.4707 7.27366 33.4573 5.42309 35.7543 5.42309C37.1571 5.42309 38.2053 6.09896 38.6062 7.30587L41.2114 7.30588C40.7644 4.58634 38.4829 3.02539 35.7851 3.02539C32.4553 3.02539 29.9579 5.39088 29.9579 9.12431C29.9579 12.906 32.671 15.1428 35.7696 15.1428C38.822 15.1428 41.2114 13.0669 41.2114 9.81629V8.86682H35.4922V10.8622Z" fill="#403F41"/>
<path d="M24.4234 3.02539C21.6485 3.02539 19.5982 4.84377 19.6136 7.8691H22.111C22.0801 6.54955 22.8817 5.34265 24.3 5.34265C25.5333 5.34265 26.2579 6.24382 26.2579 7.27367C26.2579 8.30359 25.5333 8.88292 24.1921 9.51056C22.3576 10.3634 21.0473 10.9106 19.7061 11.3933V14.9336H29.0481V12.5519H22.6347C22.6347 12.5519 22.6561 12.545 22.6666 12.5417C23.7574 12.1966 24.5769 11.8218 25.5488 11.3772C27.6299 10.4117 28.8169 9.20475 28.8169 7.14499C28.8169 4.61846 27.0287 3.02539 24.4234 3.02539Z" fill="#403F41"/>
<path d="M13.0466 10.8301C9.90173 10.8462 9.39302 12.8256 9.22347 14.4991L9.14641 15.2394H8.5143L8.43723 14.4991C8.26769 12.8256 7.74355 10.8462 4.70659 10.8301C4.19788 9.7358 3.98206 8.85074 3.98206 7.85302C3.98206 5.35878 5.93989 3.02534 8.83802 3.02534C11.7362 3.02534 13.6632 5.3426 13.6632 7.86919C13.6632 8.85074 13.5707 9.7358 13.0466 10.8301ZM8.80725 0C4.02835 0 0.112671 4.08746 0.112671 9.09206C0.112671 14.1129 4.02835 18.2003 8.80725 18.2003C13.6324 18.2003 17.5326 14.1129 17.5326 9.09206C17.5326 4.08747 13.6324 0 8.80725 0Z" fill="#29B24A"/>
</svg>
