<svg width="220" height="121" viewBox="0 0 220 121" fill="none" xmlns="http://www.w3.org/2000/svg">
<path d="M39.7308 27.5109C39.5153 22.4893 39.3133 16.5009 39.3268 10.432H39.1382C37.6837 15.7356 35.7577 21.63 34.0338 26.5308L28.4311 42.6967H20.3907L15.4613 26.665C13.9799 21.7777 12.4714 15.8967 11.3266 10.4186H11.1785C10.9495 16.0579 10.6936 22.4625 10.4243 27.6318L9.5758 43.368H0L2.92257 1.89258H16.7139L21.1987 15.7625C22.6398 20.5156 24.054 25.7252 25.0775 30.5857H25.293C26.5456 25.7789 28.0944 20.3142 29.6432 15.6953L34.5052 1.89258H48.0406L50.4918 43.368H40.4311L39.7308 27.5109Z" fill="#39B54A"/>
<path d="M55.9016 1.89258H66.3625V35.5133H84.7541V43.368H55.9016V1.89258Z" fill="#39B54A"/>
<path d="M90.1639 2.76297C93.9039 2.20908 98.7671 1.89258 103.855 1.89258C112.379 1.89258 117.942 3.31685 122.237 6.2709C126.902 9.43595 129.836 14.3945 129.836 21.595C129.836 29.4022 126.717 34.796 122.409 38.0929C117.691 41.6668 110.449 43.368 101.701 43.368C96.428 43.368 92.6616 43.0779 90.1639 42.7613V2.76297ZM100.313 36.0092C101.199 36.1543 102.613 36.1675 103.855 36.1675C113.053 36.2334 119.092 31.6309 119.092 21.8852C119.119 13.4187 113.647 8.97438 104.925 8.97438C102.705 8.97438 101.212 9.14582 100.313 9.33045V36.0092Z" fill="#39B54A"/>
<path d="M142.459 37.9651C142.459 34.7843 144.71 32.5488 147.882 32.5488C151.067 32.5488 153.252 34.7332 153.279 37.9651C153.279 41.1075 151.12 43.3685 147.856 43.3685C144.684 43.3685 142.446 41.1075 142.459 37.9651Z" fill="#39B54A"/>
<path d="M173.508 26.1458H173.629C174.33 24.8823 175.072 23.6587 175.813 22.5548L181.947 13.5373H193.217L182.379 25.6404L194.754 43.3695H183.201L175.894 31.1201L173.508 34.0727V43.3695H164.098V0.0908203H173.508V26.1458Z" fill="#39B54A"/>
<path d="M194.754 37.9017L203.917 25.8335C205.563 23.7971 206.872 22.2527 208.517 20.4076V20.2709H195.765V12.7129H219.559L219.546 18.4532L210.785 30.0567C209.204 32.0384 207.701 33.9655 206.042 35.6739V35.8106H220V43.3686H194.754V37.9017Z" fill="#39B54A"/>
<path d="M88.3411 120.909C68.3094 120.909 48.7096 114.159 33.1396 101.89C17.7659 89.7813 6.93228 72.8475 2.64072 54.2164L1.80334 50.5811H11.5248L12.0743 52.8264C20.4219 87.3221 51.7843 111.42 88.3542 111.42C124.924 111.42 156.286 87.3221 164.634 52.8398L165.184 50.5811H174.918L174.081 54.2164C169.776 72.8475 158.942 89.7813 143.569 101.89C127.973 114.159 108.36 120.909 88.3411 120.909Z" fill="white"/>
</svg>
