<svg width="122" height="67" viewBox="0 0 122 67" fill="none" xmlns="http://www.w3.org/2000/svg">
<path d="M22.0325 15.2065C21.913 12.4218 21.801 9.101 21.8085 5.73551H21.7039C20.8973 8.67659 19.8293 11.9453 18.8733 14.663L15.7663 23.6277H11.3075L8.57402 14.7375C7.75247 12.0272 6.91598 8.76594 6.28114 5.72807H6.19899C6.07202 8.85529 5.93011 12.4069 5.78074 15.2736L5.31022 24H0L1.6207 1H9.26861L11.7557 8.69149C12.5548 11.3273 13.339 14.2163 13.9066 16.9116H14.0261C14.7207 14.246 15.5796 11.2156 16.4385 8.65426L19.1347 1H26.6407L28 24H22.4209L22.0325 15.2065Z" fill="#39B54A"/>
<path d="M31 1H36.801V19.6442H47V24H31V1Z" fill="#39B54A"/>
<path d="M50 1.48267C52.074 1.17551 54.7708 1 57.5923 1C62.3191 1 65.4044 1.78982 67.7861 3.42798C70.3731 5.18314 72 7.93291 72 11.9259C72 16.2553 70.2705 19.2464 67.8814 21.0747C65.2652 23.0566 61.2492 24 56.3977 24C53.4737 24 51.3851 23.8391 50 23.6636V1.48267ZM55.6282 19.9192C56.1193 19.9997 56.9034 20.007 57.5923 20.007C62.6929 20.0436 66.042 17.4913 66.042 12.0868C66.0566 7.39173 63.0227 4.92718 58.1859 4.92718C56.9547 4.92718 56.1266 5.02225 55.6282 5.12464V19.9192Z" fill="#39B54A"/>
<path d="M79 21.0035C79 19.2397 80.2482 18 82.0073 18C83.7737 18 84.9854 19.2113 85 21.0035C85 22.7462 83.8029 24 81.9927 24C80.2336 24 78.9927 22.7462 79 21.0035Z" fill="#39B54A"/>
<path d="M96.2181 14.4487H96.2854C96.6741 13.748 97.0853 13.0695 97.4965 12.4573L100.898 7.45667H107.148L101.137 14.1684L108 24H101.593L97.5413 17.2071L96.2181 18.8445V24H91V0H96.2181V14.4487Z" fill="#39B54A"/>
<path d="M108 20.9683L113.081 14.276C113.994 13.1467 114.72 12.2902 115.632 11.2671V11.1913H108.561V7H121.756L121.748 10.1832L116.89 16.6179C116.013 17.7169 115.18 18.7856 114.26 19.7329V19.8087H122V24H108V20.9683Z" fill="#39B54A"/>
<path d="M48.9891 67C37.8807 67 27.0116 63.2571 18.3774 56.4533C9.85194 49.7383 3.84423 40.3478 1.46436 30.016L1 28H6.39098L6.69571 29.2452C11.3248 48.3746 28.7167 61.7377 48.9964 61.7377C69.276 61.7377 86.6679 48.3746 91.297 29.2526L91.6018 28H97L96.5356 30.016C94.1485 40.3478 88.1408 49.7383 79.6154 56.4533C70.9666 63.2571 60.0903 67 48.9891 67Z" fill="#CCCCCC"/>
</svg>
