<svg width="134" height="22" viewBox="0 0 134 22" fill="none" xmlns="http://www.w3.org/2000/svg">
<g clip-path="url(#clip0_436_215)">
<path d="M8.91106 0C3.98948 0 0 3.93976 0 8.8C0 11.2292 0.996702 13.4288 2.60871 15.0212C4.22117 16.6144 8.01995 18.92 8.24273 21.34C8.27612 21.7028 8.54214 22 8.91106 22C9.27997 22 9.54598 21.7028 9.57938 21.34C9.80216 18.92 13.6009 16.6144 15.2134 15.0212C16.8254 13.4288 17.8221 11.2292 17.8221 8.8C17.8221 3.93976 13.8326 0 8.91106 0Z" fill="url(#paint0_linear_436_215)"/>
<path d="M8.91111 11.8805C10.6336 11.8805 12.03 10.5015 12.03 8.80046C12.03 7.09942 10.6336 5.72046 8.91111 5.72046C7.1886 5.72046 5.79224 7.09942 5.79224 8.80046C5.79224 10.5015 7.1886 11.8805 8.91111 11.8805Z" fill="white"/>
<path d="M33.3652 16.2818H35.7185V2.93335H32.2955C28.8531 2.93335 27.0444 4.68113 27.0444 7.25479C27.0444 9.30986 28.0362 10.5199 29.806 11.7683L26.7332 16.2818H29.2809L32.7039 11.2305L31.5175 10.443C30.0784 9.48272 29.3782 8.73367 29.3782 7.12033C29.3782 5.69907 30.3895 4.73876 32.3149 4.73876H33.3652V16.2818ZM64.2692 15.6287V13.7657C63.5496 14.2459 62.3437 14.6684 61.2157 14.6684C59.5237 14.6684 58.8819 13.881 58.7847 12.2677H64.3664V11.0577C64.3664 7.69653 62.8689 6.42891 60.5545 6.42891C57.7344 6.42891 56.3925 8.56082 56.3925 11.4802C56.3925 14.8413 58.0651 16.4738 61.0212 16.4738C62.4993 16.4738 63.5885 16.0897 64.2692 15.6287ZM78.7391 16.4738C79.8087 16.4738 80.5673 16.2818 81.1312 15.8784V14.0154C80.5478 14.4187 79.8476 14.6684 78.8752 14.6684C77.2221 14.6684 76.5414 13.4008 76.5414 11.4034C76.5414 9.30986 77.3777 8.2343 78.8947 8.2343C79.7892 8.2343 80.6645 8.54161 81.1312 8.8297V6.88986C80.645 6.62098 79.7892 6.42891 78.6418 6.42891C75.6856 6.42891 74.1491 8.52241 74.1491 11.461C74.1491 14.6877 75.6467 16.4738 78.7391 16.4738ZM43.0701 6.62098V10.443H39.9778V6.62098H37.6633V16.2818H39.9778V12.2484H43.0701V16.2818H45.3844V6.62098H43.0701ZM55.8284 14.4763H54.7976V6.62098H48.049V7.44685C48.049 9.80923 47.8933 12.8631 47.0765 14.4763H46.357V18.4905H48.4963V16.2818H53.6891V18.4905H55.8284V14.4763ZM71.6597 16.2818H74.2853L70.5705 11.0768L73.838 6.62098H71.5041L68.2367 11.0768V6.62098H65.9223V16.2818H68.2367V11.5378L71.6597 16.2818ZM60.5156 8.2343C61.663 8.2343 62.0131 9.17542 62.0131 10.3854V10.5775H58.7847C58.843 9.04098 59.407 8.2343 60.5156 8.2343ZM52.4833 14.4763H49.2159C49.8577 13.0166 50.0328 10.3854 50.0328 8.71447V8.42638H52.4833V14.4763Z" fill="white"/>
<path d="M93.0743 16.2818H95.8166L90.9934 9.25224L95.5055 2.93335H93.1716L88.7957 9.07939V2.93335H86.4424V16.2818H88.7957V10.0205L93.0743 16.2818Z" fill="white"/>
<path d="M103.62 9.69396C103.62 7.35078 102.414 6.46729 99.9637 6.46729C98.4273 6.46729 97.2214 6.94745 96.5214 7.35078V9.25221C97.1437 8.79125 98.5051 8.29189 99.6915 8.29189C100.8 8.29189 101.306 8.67602 101.306 9.71316V10.2509H100.936C97.3965 10.2509 95.8212 11.4033 95.8212 13.3623C95.8212 15.3214 97.0269 16.4162 98.8163 16.4162C100.178 16.4162 100.761 15.9744 101.208 15.5135H101.306C101.325 15.7632 101.403 16.0897 101.481 16.2817H103.737C103.659 15.4942 103.62 14.7068 103.62 13.9194V9.69396ZM101.306 13.977C101.014 14.3995 100.469 14.7453 99.6526 14.7453C98.6801 14.7453 98.1938 14.1691 98.1938 13.3047C98.1938 12.1716 98.9913 11.7682 100.975 11.7682H101.306V13.977Z" fill="white"/>
<path d="M107.552 6.62103H105.413V19.0667H107.727V15.1486C108.31 16.013 109.166 16.4739 110.158 16.4739C112.414 16.4739 113.97 14.6877 113.97 11.4418C113.97 8.21515 112.453 6.42896 110.275 6.42896C109.186 6.42896 108.291 6.92832 107.669 7.86944L107.552 6.62103ZM109.575 14.6684C108.349 14.6684 107.727 13.689 107.727 11.4611C107.727 9.21388 108.388 8.23435 109.691 8.23435C110.956 8.23435 111.578 9.21388 111.578 11.4418C111.578 13.689 110.917 14.6684 109.575 14.6684Z" fill="white"/>
<path d="M122.037 8.42625V6.62085H114.276V8.42625H116.999V16.2816H119.313V8.42625H122.037Z" fill="white"/>
<path d="M123.338 6.62085V16.2816H126.859C129.135 16.2816 130.749 15.1293 130.749 12.863C130.749 10.7118 129.309 9.57862 126.898 9.57862H125.653V6.62085H123.338ZM131.604 6.62085V16.2816H133.919V6.62085H131.604ZM126.722 14.4762H125.653V11.384H126.781C127.772 11.384 128.356 11.8258 128.356 12.9397C128.356 14.0537 127.714 14.4762 126.722 14.4762Z" fill="white"/>
</g>
<defs>
<linearGradient id="paint0_linear_436_215" x1="8.91105" y1="0" x2="8.91105" y2="22" gradientUnits="userSpaceOnUse">
<stop stop-color="#FC463C"/>
<stop offset="1" stop-color="#FC463C"/>
</linearGradient>
<clipPath id="clip0_436_215">
<rect width="134" height="22" fill="white"/>
</clipPath>
</defs>
</svg>
