<svg width="74" height="20" viewBox="0 0 74 20" fill="none" xmlns="http://www.w3.org/2000/svg">
<g clip-path="url(#clip0_314_5)">
<path d="M8.09051 0C3.62212 0 0 3.5816 0 8C0 10.2084 0.904923 12.208 2.3685 13.6556C3.83247 15.104 7.28146 17.2 7.48372 19.4C7.51404 19.7298 7.75556 20 8.09051 20C8.42545 20 8.66697 19.7298 8.6973 19.4C8.89956 17.2 12.3485 15.104 13.8125 13.6556C15.2761 12.208 16.181 10.2084 16.181 8C16.181 3.5816 12.5589 0 8.09051 0Z" fill="url(#paint0_linear_314_5)"/>
<path d="M8.09047 10.8002C9.65436 10.8002 10.9221 9.5466 10.9221 8.0002C10.9221 6.4538 9.65436 5.2002 8.09047 5.2002C6.52657 5.2002 5.25879 6.4538 5.25879 8.0002C5.25879 9.5466 6.52657 10.8002 8.09047 10.8002Z" fill="white"/>
<path d="M30.2928 14.8014H32.4294V2.6665H29.3217C26.1962 2.6665 24.554 4.25539 24.554 6.59508C24.554 8.46333 25.4545 9.56333 27.0614 10.6982L24.2715 14.8014H26.5847L29.6924 10.2093L28.6153 9.49349C27.3087 8.62047 26.6729 7.93952 26.6729 6.47285C26.6729 5.18079 27.5911 4.30778 29.3393 4.30778H30.2928V14.8014ZM58.3511 14.2077V12.5141C57.6978 12.9506 56.603 13.3347 55.5788 13.3347C54.0426 13.3347 53.4599 12.6189 53.3716 11.1522H58.4394V10.0522C58.4394 6.99666 57.0798 5.84428 54.9785 5.84428C52.4181 5.84428 51.1997 7.78238 51.1997 10.4363C51.1997 13.4919 52.7183 14.976 55.4022 14.976C56.7443 14.976 57.7331 14.6268 58.3511 14.2077ZM71.4886 14.976C72.4598 14.976 73.1485 14.8014 73.6605 14.4347V12.7411C73.1308 13.1077 72.4951 13.3347 71.6122 13.3347C70.1113 13.3347 69.4933 12.1823 69.4933 10.3665C69.4933 8.46333 70.2526 7.48555 71.6299 7.48555C72.4421 7.48555 73.2368 7.76492 73.6605 8.02682V6.26333C73.2191 6.01889 72.4421 5.84428 71.4003 5.84428C68.7163 5.84428 67.3213 7.74746 67.3213 10.4189C67.3213 13.3522 68.681 14.976 71.4886 14.976ZM39.1041 6.01889V9.49349H36.2965V6.01889H34.1952V14.8014H36.2965V11.1347H39.1041V14.8014H41.2053V6.01889H39.1041ZM50.6876 13.1601H49.7517V6.01889H43.6245V6.76968C43.6245 8.9173 43.4832 11.6935 42.7416 13.1601H42.0883V16.8093H44.0306V14.8014H48.7453V16.8093H50.6876V13.1601ZM65.0611 14.8014H67.445L64.0722 10.0696L67.0388 6.01889H64.9198L61.9533 10.0696V6.01889H59.852V14.8014H61.9533V10.4887L65.0611 14.8014ZM54.9432 7.48555C55.985 7.48555 56.3028 8.34111 56.3028 9.44111V9.61571H53.3716C53.4246 8.21889 53.9366 7.48555 54.9432 7.48555ZM47.6505 13.1601H44.6839C45.2667 11.8331 45.4256 9.44111 45.4256 7.92206V7.66016H47.6505V13.1601Z" fill="black"/>
</g>
<defs>
<linearGradient id="paint0_linear_314_5" x1="8.09051" y1="0" x2="8.09051" y2="20" gradientUnits="userSpaceOnUse">
<stop stop-color="#FF6122"/>
<stop offset="1" stop-color="#F22411"/>
</linearGradient>
<clipPath id="clip0_314_5">
<rect width="74" height="20" fill="white"/>
</clipPath>
</defs>
</svg>
