<svg width="30" height="30" viewBox="0 0 30 30" fill="none" xmlns="http://www.w3.org/2000/svg">
<path d="M0 15C0 23.2843 6.71573 30 15 30C23.2843 30 30 23.2843 30 15C30 6.71573 23.2843 0 15 0C6.71573 0 0 6.71573 0 15Z" fill="#39BDFF"/>
<path d="M20.6004 20.4354C19.1889 21.8469 15.5743 20.5206 12.5268 17.4732C9.47936 14.4257 8.15312 10.8111 9.56456 9.39963L10.4939 8.4703C11.1355 7.82873 12.1926 7.84569 12.8551 8.50818L14.2946 9.94763C14.957 10.6101 14.974 11.6673 14.3324 12.3088L14.1328 12.5085C13.7864 12.8548 13.7525 13.4136 14.0744 13.8037C14.3849 14.1799 14.7196 14.5546 15.0825 14.9175C15.4454 15.2804 15.8201 15.6151 16.1963 15.9256C16.5864 16.2475 17.1452 16.2136 17.4915 15.8672L17.6912 15.6676C18.3327 15.026 19.3899 15.043 20.0524 15.7054L21.4918 17.1449C22.1543 17.8074 22.1713 18.8645 21.5297 19.5061L20.6004 20.4354Z" fill="white"/>
</svg>
