<svg width="24" height="24" viewBox="0 0 24 24" fill="none" xmlns="http://www.w3.org/2000/svg">
<path d="M10.9782 1.81899C11.3449 1.07531 12.4053 1.07531 12.772 1.81899L15.1351 6.61144C15.4251 7.19967 15.9851 7.60831 16.6338 7.70507L21.8967 8.49013C22.7118 8.61171 23.0382 9.61169 22.4518 10.1907L18.6379 13.9569C18.1747 14.4143 17.9631 15.0684 18.0706 15.7104L18.9583 21.0103C19.0949 21.8262 18.2383 22.4457 17.5063 22.0604L12.8066 19.5869C12.2235 19.28 11.5267 19.28 10.9436 19.5869L6.24398 22.0604C5.51195 22.4457 4.65532 21.8262 4.79197 21.0103L5.67963 15.7104C5.78715 15.0684 5.57553 14.4143 5.11238 13.9569L1.29844 10.1907C0.712052 9.61169 1.03846 8.61171 1.85354 8.49013L7.11645 7.70507C7.76511 7.60831 8.32512 7.19967 8.61517 6.61144L10.9782 1.81899Z" fill="#FFCE4C"/>
</svg>
