<svg width="18" height="22" viewBox="0 0 18 22" fill="none" xmlns="http://www.w3.org/2000/svg">
<path d="M7.08322 8.84963V8.06155C6.81323 8.02548 6.53873 8.00294 6.25523 8.00294C2.8758 7.9985 0.126343 10.7502 0.126343 14.137C0.126343 16.2132 1.16133 18.0508 2.7453 19.1632C1.72381 18.0688 1.09832 16.596 1.09832 14.9837C1.09832 11.6464 3.77128 8.92621 7.08322 8.84963Z" fill="white"/>
<path d="M7.23169 17.7849C8.73918 17.7849 9.97214 16.5824 10.0262 15.0872L10.0307 1.72463H12.4696C12.4201 1.4499 12.3931 1.16617 12.3931 0.87793H9.06317L9.05866 14.2405C9.0047 15.7357 7.77167 16.9382 6.26422 16.9382C5.79623 16.9382 5.35524 16.8211 4.96375 16.6139C5.46774 17.321 6.29572 17.7849 7.23169 17.7849Z" fill="white"/>
<path d="M17.0281 6.26086V5.51779C16.0967 5.51779 15.2326 5.24304 14.5037 4.76562C15.1516 5.50877 16.0291 6.04924 17.0281 6.26086Z" fill="white"/>
<path d="M14.5037 4.76459C13.7927 3.94944 13.3652 2.88657 13.3652 1.72461H12.4742C12.7037 2.99466 13.4597 4.08457 14.5037 4.76459Z" fill="white" fill-opacity="0.5"/>
<path d="M6.25976 11.3308C4.71629 11.3308 3.46082 12.5874 3.46082 14.1321C3.46082 15.2085 4.0728 16.1453 4.96378 16.6137C4.63079 16.1543 4.4328 15.5913 4.4328 14.9788C4.4328 13.4341 5.68827 12.1775 7.23177 12.1775C7.51976 12.1775 7.79873 12.227 8.05973 12.3081V8.90334C7.78971 8.86727 7.51525 8.84473 7.23177 8.84473C7.18225 8.84473 7.13725 8.84923 7.08775 8.84923V11.4614C6.82225 11.3803 6.54776 11.3308 6.25976 11.3308Z" fill="white" fill-opacity="0.5"/>
<path d="M17.028 6.25977V8.84939C15.3 8.84939 13.6981 8.29547 12.393 7.35866V14.1368C12.393 17.5191 9.64365 20.2754 6.25967 20.2754C4.9547 20.2754 3.73972 19.861 2.74524 19.1629C3.86572 20.3654 5.46319 21.1221 7.23169 21.1221C10.6111 21.1221 13.3651 18.3703 13.3651 14.9835V8.20536C14.67 9.14217 16.272 9.69609 18 9.69609V6.36339C17.6625 6.36339 17.3385 6.32732 17.028 6.25977Z" fill="white" fill-opacity="0.5"/>
<path d="M12.393 14.1368V7.35872C13.6981 8.29552 15.3 8.84944 17.028 8.84944V6.25982C16.029 6.0482 15.1515 5.50773 14.5036 4.76459C13.4595 4.08457 12.7081 2.99466 12.4695 1.72461H10.0306L10.0261 15.0871C9.97213 16.5823 8.7391 17.7848 7.23169 17.7848C6.29567 17.7848 5.47219 17.3209 4.9592 16.6184C4.06821 16.1455 3.45622 15.2133 3.45622 14.1368C3.45622 12.5921 4.7117 11.3355 6.25517 11.3355C6.54317 11.3355 6.82216 11.385 7.08316 11.4661V8.85395C3.77122 8.92602 1.09827 11.6463 1.09827 14.9835C1.09827 16.5958 1.72376 18.0641 2.74523 19.163C3.73972 19.861 4.9547 20.2754 6.25967 20.2754C9.63913 20.2754 12.393 17.5191 12.393 14.1368Z" fill="white"/>
</svg>
