<svg width="42" height="42" viewBox="0 0 42 42" fill="none" xmlns="http://www.w3.org/2000/svg">
<path d="M0 21C0 32.598 9.40202 42 21 42C32.598 42 42 32.598 42 21C42 9.40202 32.598 0 21 0C9.40202 0 0 9.40202 0 21Z" fill="#21D46E"/>
<path fill-rule="evenodd" clip-rule="evenodd" d="M28.15 13.7313C26.3688 11.95 23.9937 11 21.5 11C16.275 11 12 15.275 12 20.5C12 22.1625 12.475 23.825 13.3063 25.25L12 30L16.9875 28.6938C18.4125 29.4062 19.9563 29.8813 21.5 29.8813C26.725 29.8813 31 25.6062 31 20.3812C31 17.8875 29.9313 15.5125 28.15 13.7313ZM21.5 28.3375C20.075 28.3375 18.65 27.9813 17.4625 27.2688L17.225 27.15L14.2562 27.9812L15.0875 25.1312L14.85 24.775C14.0187 23.4688 13.6625 22.0438 13.6625 20.6188C13.6625 16.3438 17.225 12.7812 21.5 12.7812C23.6375 12.7812 25.5375 13.6125 27.0813 15.0375C28.625 16.5812 29.3375 18.4813 29.3375 20.6188C29.3375 24.775 25.8938 28.3375 21.5 28.3375ZM25.775 22.4C25.5375 22.2812 24.35 21.6875 24.1125 21.6875C23.875 21.5688 23.7562 21.5688 23.6375 21.8063C23.5187 22.0438 23.0438 22.5187 22.925 22.7562C22.8063 22.875 22.6875 22.875 22.45 22.875C22.2125 22.7563 21.5 22.5188 20.55 21.6875C19.8375 21.0938 19.3625 20.2625 19.2438 20.025C19.125 19.7875 19.2438 19.6687 19.3625 19.55C19.4813 19.4312 19.6 19.3125 19.7188 19.1937C19.8375 19.075 19.8375 18.9563 19.9563 18.8375C20.075 18.7188 19.9563 18.6 19.9563 18.4813C19.9563 18.3625 19.4813 17.175 19.2438 16.7C19.125 16.3438 18.8875 16.3438 18.7688 16.3438C18.65 16.3438 18.5312 16.3438 18.2937 16.3438C18.175 16.3438 17.9375 16.3438 17.7 16.5812C17.4625 16.8187 16.8688 17.4125 16.8688 18.6C16.8688 19.7875 17.7 20.8562 17.8187 21.0938C17.9375 21.2125 19.4812 23.7063 21.8562 24.6562C23.875 25.4875 24.2313 25.25 24.7063 25.25C25.1813 25.25 26.1313 24.6562 26.25 24.1813C26.4875 23.5875 26.4875 23.1125 26.3688 23.1125C26.25 22.5188 26.0125 22.5188 25.775 22.4Z" fill="white"/>
</svg>
